<?xml version="1.0" encoding="UTF-8" standalone="no"?>
<svg width="963px" height="322px" viewBox="0 0 963 322" version="1.1" xmlns="http://www.w3.org/2000/svg" xmlns:xlink="http://www.w3.org/1999/xlink">
    <!-- Generator: Sketch 3.6.1 (26313) - http://www.bohemiancoding.com/sketch -->
    <title>Group</title>
    <desc>Created with Sketch.</desc>
    <defs></defs>
    <g id="Page-1" stroke="none" stroke-width="1" fill="none" fill-rule="evenodd">
        <g id="Group" transform="translate(-19.000000, -26.000000)" fill="#527899">
            <path d="M452.72,52.88 C452.72,58.6400288 449.360034,65.3599616 442.64,73.04 C434.239958,82.8800492 424.160059,90.5599724 412.4,96.08 C400.639941,101.600028 386.480083,105.679987 369.92,108.32 C362.959965,118.640052 355.940035,129.319945 348.86,140.36 C341.779965,151.400055 334.760035,162.679942 327.8,174.2 C319.399958,188.12007 310.460047,203.599915 300.98,220.64 C291.499953,237.680085 282.80004,254.23992 274.88,270.32 C274.639999,270.560001 274.52,270.919998 274.52,271.4 C274.52,271.640001 274.639999,271.76 274.88,271.76 C275.360002,271.76 275.839998,271.520002 276.32,271.04 C282.32003,264.559968 289.159962,258.080032 296.84,251.6 C304.520038,245.119968 313.759946,238.760031 324.56,232.52 C326.48001,231.319994 328.279992,230.72 329.96,230.72 C331.160006,230.72 332.299995,231.259995 333.38,232.34 C334.460005,233.420005 335,234.559994 335,235.76 C335,236.960006 333.800012,238.999986 331.4,241.88 C328.999988,244.760014 326.240016,248.959972 323.12,254.48 C322.399996,255.920007 320.900011,258.499981 318.62,262.22 C316.339989,265.940019 313.940013,270.139977 311.42,274.82 C308.899987,279.500023 306.68001,284.359975 304.76,289.4 C302.83999,294.440025 301.88,298.99998 301.88,303.08 C301.88,306.440017 302.779991,308.899992 304.58,310.46 C306.380009,312.020008 308.719986,312.8 311.6,312.8 C316.400024,312.8 321.499973,311.300015 326.9,308.3 C332.300027,305.299985 337.579974,301.520023 342.74,296.96 C347.900026,292.399977 352.639978,287.600025 356.96,282.56 C361.280022,277.519975 364.879986,273.080019 367.76,269.24 C368.720005,268.279995 369.439998,267.8 369.92,267.8 C370.400002,267.8 370.64,268.159996 370.64,268.88 C370.64,269.840005 370.400002,270.559998 369.92,271.04 C365.359977,276.800029 360.620025,282.439972 355.7,287.96 C350.779975,293.480028 345.560028,298.399978 340.04,302.72 C334.519972,307.040022 328.640031,310.579986 322.4,313.34 C316.159969,316.100014 309.440036,317.48 302.24,317.48 C297.679977,317.48 293.840016,316.160013 290.72,313.52 C287.599984,310.879987 286.04,307.760018 286.04,304.16 C286.04,301.039984 286.99999,297.800017 288.92,294.44 C293.960025,285.559956 298.879976,276.860043 303.68,268.34 C308.480024,259.819957 312.799981,252.080035 316.64,245.12 C316.880001,244.639998 317,244.040004 317,243.32 C317,242.599996 316.640004,242.24 315.92,242.24 C315.679999,242.24 315.080005,242.479998 314.12,242.96 C305.959959,247.760024 298.220037,253.639965 290.9,260.6 C283.579963,267.560035 277.160028,274.639964 271.64,281.84 C266.839976,287.84003 263.840006,293.479974 262.64,298.76 C262.399999,299.960006 261.440008,300.56 259.76,300.56 C258.559994,300.56 257.840001,300.080005 257.6,299.12 C256.879996,297.19999 255.800007,295.700005 254.36,294.62 C252.919993,293.539995 252.2,292.280007 252.2,290.84 C252.2,288.199987 252.979992,285.800011 254.54,283.64 C256.100008,281.479989 257.479994,279.44001 258.68,277.52 C262.280018,271.51997 266.659974,263.840047 271.82,254.48 C276.980026,245.119953 282.499971,234.980055 288.38,224.06 C294.260029,213.139945 300.19997,201.980057 306.2,190.58 C312.20003,179.179943 317.719975,168.680048 322.76,159.08 C327.560024,150.199956 332.299977,141.74004 336.98,133.7 C341.660023,125.65996 346.399976,118.040036 351.2,110.84 C334.399916,113.480013 319.400066,115.75999 306.2,117.68 C292.999934,119.60001 280.460059,121.279993 268.58,122.72 C256.699941,124.160007 245.000058,125.359995 233.48,126.32 C221.959942,127.280005 209.600066,128.119996 196.4,128.84 C181.039923,129.560004 166.940064,130.759992 154.1,132.44 C141.259936,134.120008 129.440054,136.519984 118.64,139.64 C107.839946,142.760016 97.8200462,146.959974 88.58,152.24 C79.3399538,157.520026 70.6400408,164.11996 62.48,172.04 C51.679946,182.360052 42.7400354,194.839927 35.66,209.48 C28.5799646,224.120073 25.04,241.279902 25.04,260.96 C25.04,267.920035 25.4599958,274.519969 26.3,280.76 C27.1400042,287.000031 28.759988,291.559986 31.16,294.44 C31.16,295.400005 30.3200084,295.88 28.64,295.88 C25.039982,293.719989 21.2000204,290.300023 17.12,285.62 C13.0399796,280.939977 11,275.000036 11,267.8 C11,259.399958 12.3199868,250.580046 14.96,241.34 C17.6000132,232.099954 21.0799784,223.640038 25.4,215.96 C29.7200216,208.279962 34.7599712,200.48004 40.52,192.56 C46.2800288,184.63996 52.9999616,176.900038 60.68,169.34 C68.3600384,161.779962 77.1199508,154.640034 86.96,147.92 C96.8000492,141.199966 107.839939,135.320025 120.08,130.28 C139.040095,122.35996 158.779897,117.140013 179.3,114.62 C199.820103,112.099987 221.239888,110.84 243.56,110.84 C246.680016,110.84 250.339979,110.899999 254.54,111.02 C258.740021,111.140001 262.519983,111.2 265.88,111.2 C279.560068,111.2 293.899925,110.720005 308.9,109.76 C323.900075,108.799995 339.079923,107.600007 354.44,106.16 C356.600011,102.799983 358.759989,99.6800144 360.92,96.8 C363.080011,93.9199856 365.239989,91.1600132 367.4,88.52 C371.720022,83.4799748 376.459974,78.260027 381.62,72.86 C386.780026,67.459973 392.419969,62.4800228 398.54,57.92 C404.660031,53.3599772 411.019967,49.6400144 417.62,46.76 C424.220033,43.8799856 431.119964,42.44 438.32,42.44 C442.640022,42.44 446.119987,43.339991 448.76,45.14 C451.400013,46.940009 452.72,49.5199832 452.72,52.88 L452.72,52.88 Z M269.84,133.16 C260.959956,134.120005 253.280032,138.079965 246.8,145.04 C240.319968,152.000035 234.320028,160.039954 228.8,169.16 C224.959981,175.640032 220.520025,183.079958 215.48,191.48 C210.439975,199.880042 205.520024,208.219959 200.72,216.5 C195.919976,224.780041 191.420021,232.579963 187.22,239.9 C183.019979,247.220037 179.720012,253.039978 177.32,257.36 C173.23998,264.560036 169.580016,270.439977 166.34,275 C163.099984,279.560023 160.040014,283.399984 157.16,286.52 C154.279986,289.640016 151.520013,292.099991 148.88,293.9 C146.239987,295.700009 143.600013,297.439992 140.96,299.12 C140.479998,299.600002 140.24,299.959999 140.24,300.2 C140.24,300.680002 140.959993,300.92 142.4,300.92 C149.360035,300.92 157.639952,301.159998 167.24,301.64 C176.840048,302.120002 185.959957,302.36 194.6,302.36 C200.360029,302.36 204.679986,301.640007 207.56,300.2 C209.48001,300.2 210.44,300.679995 210.44,301.64 C210.44,302.120002 209.960005,302.479999 209,302.72 C201.799964,305.120012 195.080031,307.099992 188.84,308.66 C182.599969,310.220008 174.560049,311 164.72,311 L118.28,311 C115.639987,311 113.060013,311.179998 110.54,311.54 C108.019987,311.900002 105.80001,312.439996 103.88,313.16 C102.919995,313.16 102.44,312.560006 102.44,311.36 C105.800017,309.919993 108.739987,308.000012 111.26,305.6 C113.780013,303.199988 116.119989,302 118.28,302 C122.36002,301.759999 127.099973,301.160005 132.5,300.2 C137.900027,299.239995 142.63998,296.480023 146.72,291.92 C149.840016,288.559983 153.199982,284.000029 156.8,278.24 C160.400018,272.479971 164.119981,266.000036 167.96,258.8 C173.96003,247.279942 179.419975,236.780047 184.34,227.3 C189.260025,217.819953 193.999977,209.06004 198.56,201.02 C203.120023,192.97996 207.739977,185.420035 212.42,178.34 C217.100023,171.259965 222.079974,164.480032 227.36,158 C232.160024,151.99997 238.399962,146.120029 246.08,140.36 C253.760038,134.599971 261.679959,131.120006 269.84,129.92 C271.520008,129.92 272.36,130.519994 272.36,131.72 C272.36,132.680005 271.520008,133.16 269.84,133.16 L269.84,133.16 Z M443.72,57.92 C443.72,54.5599832 442.70001,51.8000108 440.66,49.64 C438.61999,47.4799892 435.800018,46.4 432.2,46.4 C426.679972,46.4 421.580023,48.1399826 416.9,51.62 C412.219977,55.1000174 408.080018,58.8799796 404.48,62.96 C401.599986,66.0800156 398.660015,69.5599808 395.66,73.4 C392.659985,77.2400192 389.720014,81.0199814 386.84,84.74 C383.959986,88.4600186 381.320012,92.0599826 378.92,95.54 C376.519988,99.0200174 374.480008,101.959988 372.8,104.36 C384.80006,102.43999 396.619942,99.1400234 408.26,94.46 C419.900058,89.7799766 429.559962,82.7600468 437.24,73.4 C439.640012,70.5199856 441.319995,67.7600132 442.28,65.12 C443.240005,62.4799868 443.72,60.0800108 443.72,57.92 L443.72,57.92 Z M445.52,268.16 C441.43998,273.200025 436.580028,278.419973 430.94,283.82 C425.299972,289.220027 419.180033,294.139978 412.58,298.58 C405.979967,303.020022 399.140035,306.619986 392.06,309.38 C384.979965,312.140014 377.960035,313.52 371,313.52 C359.719944,313.52 354.08,308.48005 354.08,298.4 C354.08,291.679966 355.819983,284.420039 359.3,276.62 C362.780017,268.819961 367.279972,261.620033 372.8,255.02 C378.320028,248.419967 384.379967,242.900022 390.98,238.46 C397.580033,234.019978 403.87997,231.8 409.88,231.8 C413.240017,231.8 415.579993,232.399994 416.9,233.6 C418.220007,234.800006 418.88,236.35999 418.88,238.28 C418.88,241.160014 417.980009,244.279983 416.18,247.64 C414.379991,251.000017 411.680018,254.179985 408.08,257.18 C404.479982,260.180015 399.920028,262.69999 394.4,264.74 C388.879972,266.78001 382.280038,267.8 374.6,267.8 C373.399994,269.960011 372.080007,273.379977 370.64,278.06 C369.199993,282.740023 368.48,287.479976 368.48,292.28 C368.48,302.120049 372.919956,307.04 381.8,307.04 C387.320028,307.04 393.019971,305.720013 398.9,303.08 C404.780029,300.439987 410.479972,297.14002 416,293.18 C421.520028,289.21998 426.619977,284.900023 431.3,280.22 C435.980023,275.539977 439.879984,271.16002 443,267.08 C443.480002,266.599998 444.019997,266.479999 444.62,266.72 C445.220003,266.960001 445.52,267.439996 445.52,268.16 L445.52,268.16 Z M407.72,240.08 C407.72,236.959984 406.160016,235.4 403.04,235.4 C400.639988,235.4 398.180013,236.299991 395.66,238.1 C393.139987,239.900009 390.680012,242.239986 388.28,245.12 C385.879988,248.000014 383.600011,251.119983 381.44,254.48 C379.279989,257.840017 377.480007,261.079984 376.04,264.2 C376.520002,264.440001 377.359994,264.619999 378.56,264.74 C379.760006,264.860001 380.719996,264.92 381.44,264.92 C388.400035,264.92 394.519974,262.460025 399.8,257.54 C405.080026,252.619975 407.72,246.800034 407.72,240.08 L407.72,240.08 Z M658.28,286.88 C659.240005,286.399998 659.72,286.879993 659.72,288.32 C658.279993,289.520006 656.900007,291.019991 655.58,292.82 C654.259993,294.620009 653.120005,296.239993 652.16,297.68 C650.479992,300.800016 647.120025,302.959994 642.08,304.16 C636.07997,305.600007 629.600035,306.859995 622.64,307.94 C615.679965,309.020005 608.600036,310.039995 601.4,311 C594.199964,311.960005 587.120035,312.679998 580.16,313.16 C573.199965,313.640002 566.600031,313.88 560.36,313.88 C551.239954,313.88 543.800029,313.580003 538.04,312.98 C532.279971,312.379997 527.780016,311.420007 524.54,310.1 C521.299984,308.779993 519.080006,307.220009 517.88,305.42 C516.679994,303.619991 516.08,301.520012 516.08,299.12 C516.08,294.799978 517.399987,290.240024 520.04,285.44 C521.000005,283.759992 523.159983,280.040029 526.52,274.28 C529.880017,268.519971 533.359982,262.460032 536.96,256.1 C540.560018,249.739968 543.799986,243.980026 546.68,238.82 C549.560014,233.659974 551,230.960001 551,230.72 C551,229.999996 550.640004,229.520001 549.92,229.28 C549.199996,229.039999 547.520013,228.92 544.88,228.92 C543.679994,228.92 543.08,228.560004 543.08,227.84 C543.08,226.159992 544.519986,225.080002 547.4,224.6 C552.920028,223.879996 556.999987,221.000025 559.64,215.96 C560.600005,214.279992 562.699984,210.560029 565.94,204.8 C569.180016,199.039971 572.539983,192.860033 576.02,186.26 C579.500017,179.659967 582.619986,173.660027 585.38,168.26 C588.140014,162.859973 589.52,159.680005 589.52,158.72 C589.52,157.759995 588.800007,157.28 587.36,157.28 C580.159964,157.28 572.960036,157.519998 565.76,158 C558.559964,158.480002 552.200028,159.439993 546.68,160.88 L545.96,160.52 C546.440002,156.43998 547.399993,153.680007 548.84,152.24 C556.280037,152.720002 564.139959,153.079999 572.42,153.32 C580.700041,153.560001 588.559963,153.68 596,153.68 C598.640013,153.68 603.199968,153.560001 609.68,153.32 C616.160032,153.079999 623.41996,152.840001 631.46,152.6 C639.50004,152.359999 647.599959,152.120001 655.76,151.88 C663.920041,151.639999 670.879971,151.52 676.64,151.52 C678.080007,151.52 678.8,152.119994 678.8,153.32 C678.319998,154.520006 677.360007,156.379987 675.92,158.9 C674.479993,161.420013 673.160006,163.999987 671.96,166.64 L670.52,166.28 C670.52,164.839993 670.220003,163.520006 669.62,162.32 C669.019997,161.119994 668.360004,160.400001 667.64,160.16 C660.199963,158.959994 652.160043,158.120002 643.52,157.64 C634.879957,157.159998 626.240043,156.92 617.6,156.92 C613.759981,156.92 610.88001,158.119988 608.96,160.52 C602.479968,169.160043 595.940033,178.939945 589.34,189.86 C582.739967,200.780055 576.560029,211.399948 570.8,221.72 C569.839995,223.880011 570.559988,224.96 572.96,224.96 C576.320017,225.200001 579.679983,225.32 583.04,225.32 L593.48,225.32 C604.520055,225.32 614.179959,225.020003 622.46,224.42 C630.740041,223.819997 639.079958,222.56001 647.48,220.64 L648.56,221.72 C648.079998,222.680005 647.480004,223.879993 646.76,225.32 C646.039996,226.760007 645.440002,228.079994 644.96,229.28 C644.719999,230.240005 643.760008,230.72 642.08,230.72 C635.839969,230.479999 629.060037,230.300001 621.74,230.18 C614.419963,230.059999 607.040037,230 599.6,230 L583.4,230 C578.359975,230 573.560023,230.119999 569,230.36 C567.07999,230.36 565.760004,231.079993 565.04,232.52 C560.95998,239.720036 556.820021,247.27996 552.62,255.2 C548.419979,263.12004 544.760016,270.799963 541.64,278.24 C539.239988,283.760028 538.04,288.679978 538.04,293 C538.04,304.280056 546.559915,309.92 563.6,309.92 C569.60003,309.92 576.979956,309.440005 585.74,308.48 C594.500044,307.519995 603.439954,306.02001 612.56,303.98 C621.680046,301.93999 630.379959,299.480014 638.66,296.6 C646.940041,293.719986 653.479976,290.480018 658.28,286.88 L658.28,286.88 Z M784.64,264.56 C780.319978,270.56003 775.340028,276.619969 769.7,282.74 C764.059972,288.860031 758.060032,294.319976 751.7,299.12 C745.339968,303.920024 738.860033,307.879984 732.26,311 C725.659967,314.120016 719.240031,315.68 713,315.68 C710.119986,315.68 707.480012,315.260004 705.08,314.42 C702.679988,313.579996 701.48,311.480017 701.48,308.12 C701.48,304.759983 702.679988,300.500026 705.08,295.34 C707.480012,290.179974 710.299984,284.720029 713.54,278.96 C716.780016,273.199971 720.139983,267.32003 723.62,261.32 C727.100017,255.31997 729.919989,249.800025 732.08,244.76 C732.560002,243.559994 732.620002,242.540004 732.26,241.7 C731.899998,240.859996 731.120006,240.799996 729.92,241.52 C727.279987,243.200008 724.160018,245.479986 720.56,248.36 C716.959982,251.240014 713.300019,254.299984 709.58,257.54 C705.859981,260.780016 702.260017,264.079983 698.78,267.44 C695.299983,270.800017 692.480011,273.799987 690.32,276.44 C686.479981,282.44003 683.180014,287.959975 680.42,293 C677.659986,298.040025 674.24002,303.679969 670.16,309.92 C669.199995,311.360007 668.480002,312.08 668,312.08 C666.799994,312.08 665.780004,310.760013 664.94,308.12 C664.099996,305.479987 663.68,303.800004 663.68,303.08 C663.68,300.919989 665.179985,297.980019 668.18,294.26 C671.180015,290.539981 674.479982,286.400023 678.08,281.84 C681.920019,274.159962 685.87998,266.060043 689.96,257.54 C694.04002,249.019957 697.519986,241.400034 700.4,234.68 C701.120004,233.479994 702.199993,232.88 703.64,232.88 C705.080007,232.88 706.399994,233.479994 707.6,234.68 C708.800006,235.880006 709.4,237.199993 709.4,238.64 C709.4,239.600005 707.660017,242.899972 704.18,248.54 C700.699983,254.180028 697.280017,260.719963 693.92,268.16 C698.480023,264.07998 703.459973,259.760023 708.86,255.2 C714.260027,250.639977 719.419975,246.440019 724.34,242.6 C729.260025,238.759981 733.579981,235.580013 737.3,233.06 C741.020019,230.539987 743.599993,229.28 745.04,229.28 C746.000005,229.28 746.899996,229.819995 747.74,230.9 C748.580004,231.980005 749,232.999995 749,233.96 C749,234.920005 748.400006,236.35999 747.2,238.28 C744.559987,242.120019 741.320019,247.03997 737.48,253.04 C733.639981,259.04003 729.980017,265.219968 726.5,271.58 C723.019983,277.940032 720.080012,283.999971 717.68,289.76 C715.279988,295.520029 714.08,300.079983 714.08,303.44 C714.08,306.320014 714.679994,308.299995 715.88,309.38 C717.080006,310.460005 718.999987,311 721.64,311 C725.72002,311 730.519972,309.440016 736.04,306.32 C741.560028,303.199984 747.259971,299.300023 753.14,294.62 C759.020029,289.939977 764.599974,284.720029 769.88,278.96 C775.160026,273.199971 779.479983,267.680026 782.84,262.4 C783.320002,261.679996 784.039995,261.499998 785,261.86 C785.960005,262.220002 785.840006,263.119993 784.64,264.56 L784.64,264.56 Z M993.44,71.6 C993.44,73.0400072 992.720007,74.4799928 991.28,75.92 C989.839993,77.3600072 988.880002,79.3999868 988.4,82.04 C987.919998,83.7200084 987.080006,84.56 985.88,84.56 C985.159996,84.56 984.440004,84.3800018 983.72,84.02 C982.999996,83.6599982 982.100005,83.2400024 981.02,82.76 C979.939995,82.2799976 978.620008,81.8600018 977.06,81.5 C975.499992,81.1399982 973.280014,80.96 970.4,80.96 C966.31998,80.96 962.24002,81.4999946 958.16,82.58 C954.07998,83.6600054 950.360017,85.2799892 947,87.44 C940.279966,91.7600216 933.020039,97.8799604 925.22,105.8 C917.419961,113.72004 910.280032,122.359953 903.8,131.72 C887.71992,154.760115 873.620061,176.2999 861.5,196.34 C849.379939,216.3801 839.240041,234.319921 831.08,250.16 C822.919959,266.000079 816.80002,279.499944 812.72,290.66 C808.63998,301.820056 806.6,310.039974 806.6,315.32 C806.6,319.40002 807.499991,322.759987 809.3,325.4 C811.100009,328.040013 814.03998,329.36 818.12,329.36 C824.600032,329.36 830.779971,327.32002 836.66,323.24 C842.540029,319.15998 848.119974,314.060031 853.4,307.94 C858.680026,301.819969 863.479978,295.040037 867.8,287.6 C872.120022,280.159963 875.839984,273.200032 878.96,266.72 C879.440002,265.759995 880.219995,265.399999 881.3,265.64 C882.380005,265.880001 882.320006,266.839992 881.12,268.52 C876.799978,277.160043 872.180025,285.379961 867.26,293.18 C862.339975,300.980039 857.180027,307.819971 851.78,313.7 C846.379973,319.580029 840.740029,324.199983 834.86,327.56 C828.979971,330.920017 823.160029,332.6 817.4,332.6 C810.919968,332.6 806.120016,330.860017 803,327.38 C799.879984,323.899983 798.32,319.400028 798.32,313.88 C798.32,308.119971 799.459989,301.940033 801.74,295.34 C804.020011,288.739967 807.559976,280.640048 812.36,271.04 C805.639966,279.200041 799.760025,286.039972 794.72,291.56 C789.679975,297.080028 785.240019,301.399984 781.4,304.52 C777.559981,307.640016 774.260014,309.859993 771.5,311.18 C768.739986,312.500007 766.280011,313.16 764.12,313.16 C760.759983,313.16 758.480006,312.260009 757.28,310.46 C756.079994,308.659991 755.48,306.320014 755.48,303.44 C755.48,301.279989 756.079994,298.460017 757.28,294.98 C758.480006,291.499983 760.159989,288.080017 762.32,284.72 C771.200044,270.319928 781.099945,258.560046 792.02,249.44 C802.940055,240.319954 816.43992,234.320014 832.52,231.44 C844.040058,211.279899 855.079947,193.16008 865.64,177.08 C876.200053,160.99992 887.719938,145.280077 900.2,129.92 C910.520052,116.959935 920.779949,105.560049 930.98,95.72 C941.180051,85.8799508 951.679946,78.4400252 962.48,73.4 C970.640041,69.5599808 977.71997,67.64 983.72,67.64 C986.600014,67.64 988.939991,67.9999964 990.74,68.72 C992.540009,69.4400036 993.44,70.399994 993.44,71.6 L993.44,71.6 Z M829.64,236.84 C820.519954,237.080001 813.500025,238.819984 808.58,242.06 C803.659975,245.300016 799.280019,249.319976 795.44,254.12 C786.319954,265.400056 779.840019,275.05996 776,283.1 C772.159981,291.14004 770.24,297.079981 770.24,300.92 C770.24,302.120006 770.719995,302.959998 771.68,303.44 C772.640005,303.920002 773.359998,304.16 773.84,304.16 C775.520008,304.16 778.579978,302.360018 783.02,298.76 C787.460022,295.159982 792.379973,290.300031 797.78,284.18 C803.180027,278.059969 808.759971,270.920041 814.52,262.76 C820.280029,254.599959 825.319978,245.960046 829.64,236.84 L829.64,236.84 Z" id="The-End" transform="translate(502.220000, 187.520000) rotate(-5.000000) translate(-502.220000, -187.520000) "></path>
        </g>
    </g>
</svg>